<?xml version="1.0" encoding="UTF-8" standalone="no"?>
<svg
   viewBox="0 0 640 640"
   version="1.1"
   id="svg1"
   sodipodi:docname="tumblr.svg"
   inkscape:version="1.3.2 (091e20e, 2023-11-25, custom)"
   xmlns:inkscape="http://www.inkscape.org/namespaces/inkscape"
   xmlns:sodipodi="http://sodipodi.sourceforge.net/DTD/sodipodi-0.dtd"
   xmlns="http://www.w3.org/2000/svg"
   xmlns:svg="http://www.w3.org/2000/svg">
  <defs
     id="defs1" />
  <sodipodi:namedview
     id="namedview1"
     pagecolor="#ffffff"
     bordercolor="#000000"
     borderopacity="0.25"
     inkscape:showpageshadow="2"
     inkscape:pageopacity="0.0"
     inkscape:pagecheckerboard="0"
     inkscape:deskcolor="#d1d1d1"
     inkscape:zoom="1.0453125"
     inkscape:cx="320"
     inkscape:cy="319.52167"
     inkscape:window-width="1920"
     inkscape:window-height="991"
     inkscape:window-x="-9"
     inkscape:window-y="-9"
     inkscape:window-maximized="1"
     inkscape:current-layer="svg1" />
  <!--! Font Awesome Free 7.0.1 by @fontawesome - https://fontawesome.com License - https://fontawesome.com/license/free (Icons: CC BY 4.0, Fonts: SIL OFL 1.1, Code: MIT License) Copyright 2025 Fonticons, Inc. -->
  <path
     fill="currentColor"
     d="M469.9 544.3C456.3 558.8 419.9 576 372.5 576C251.7 576 225.5 487.2 225.5 435.4L225.5 291.4L178 291.4C172.5 291.4 168 286.9 168 281.4L168 213.4C168 206.2 172.5 199.8 179.3 197.4C241.3 175.6 260.8 121.4 263.6 80.3C264.4 69.3 270.1 64 279.7 64L350.6 64C356.1 64 360.6 68.5 360.6 74L360.6 189.2L443.6 189.2C449.1 189.2 453.6 193.6 453.6 199.1L453.6 280.8C453.6 286.3 449.1 290.8 443.6 290.8L360.2 290.8L360.2 424C360.2 458.2 383.9 477.6 428.2 459.8C433 457.9 437.2 456.6 440.9 457.6C444.4 458.5 446.7 461 448.3 465.5L470.3 529.8C472.1 534.8 473.6 540.4 469.9 544.3z"
     id="path1"
     style="fill:#ffffff" />
</svg>
